# xmcd
#
# Track frame offsets: 
#        150
#        16992
#        32730
#        45920
#        62457
#        75457
#        93792
#        109715
#        127177
#        142557
#        160190
#        176957
#        194855
#
# Disc length: 2831 seconds
#
# Revision: 0
# Processed by: cddbd v1.4PL0 Copyright (c) Steve Scherf et al.
# Submitted via: ExactAudioCopy v0.90a11
#
DISCID=a00b0d0d
DTITLE=Os Travessos-Dito e Feito-2003 - Os Travessos-Dito e Feito-2003
DYEAR=1900
DGENRE=
TTITLE0=Alô
TTITLE1=Eu e Você
TTITLE2=Bye Bye
TTITLE3=Playboy
TTITLE4=Toda Madrugada
TTITLE5=Dito e Feito
TTITLE6=Lição de Professor
TTITLE7=A Música que eu Toco
TTITLE8=Travessura[com Harmonia do Samba]
TTITLE9=Escuta
TTITLE10=Te Ver
TTITLE11=A Gente Tem Que Se Entender
TTITLE12=Playboy[part esp Fã-clube]
EXTD=
EXTT0=
EXTT1=
EXTT2=
EXTT3=
EXTT4=
EXTT5=
EXTT6=
EXTT7=
EXTT8=
EXTT9=
EXTT10=
EXTT11=
EXTT12=
PLAYORDER=
